<svg width="152" height="48" viewBox="0 0 152 48" fill="none" xmlns="http://www.w3.org/2000/svg">
<path d="M7.488 1.296L18.912 30L16.272 29.472L27.12 1.296H32.544L17.232 37.584L1.968 1.296H7.488ZM92.41 33.024C91.93 33.44 91.258 33.856 90.394 34.272C89.53 34.656 88.57 35.008 87.514 35.328C86.49 35.648 85.418 35.904 84.298 36.096C83.21 36.288 82.186 36.384 81.226 36.384C78.442 36.384 75.93 35.952 73.69 35.088C71.482 34.224 69.578 33.024 67.978 31.488C66.41 29.952 65.194 28.144 64.33 26.064C63.498 23.984 63.082 21.728 63.082 19.296C63.082 16.416 63.546 13.84 64.474 11.568C65.434 9.264 66.73 7.328 68.362 5.76C70.026 4.16 71.93 2.96 74.074 2.16C76.218 1.328 78.49 0.912 80.89 0.912C82.906 0.912 84.778 1.152 86.506 1.632C88.234 2.112 89.754 2.72 91.066 3.456L89.482 7.728C88.842 7.344 88.042 6.992 87.082 6.672C86.154 6.352 85.194 6.096 84.202 5.904C83.21 5.68 82.282 5.568 81.418 5.568C79.37 5.568 77.514 5.888 75.85 6.528C74.186 7.136 72.762 8.032 71.578 9.216C70.394 10.368 69.482 11.776 68.842 13.44C68.202 15.072 67.882 16.912 67.882 18.96C67.882 20.848 68.202 22.576 68.842 24.144C69.482 25.712 70.394 27.072 71.578 28.224C72.762 29.344 74.17 30.224 75.802 30.864C77.466 31.472 79.29 31.776 81.274 31.776C82.458 31.776 83.626 31.664 84.778 31.44C85.93 31.184 86.922 30.832 87.754 30.384V23.472H80.842V19.008H92.41V33.024ZM127.039 1.296H131.695V31.536H149.311V36H127.039V1.296Z" fill="#457B9D"/>
<path d="M47.428 12.864H50.532V36H47.428V12.864ZM109.225 12.864H112.329V36H109.225V12.864Z" fill="#A5BAC7"/>
<path d="M49 7.5C50.6167 7.5 52.0593 7.72672 53.0801 8.07812C53.5927 8.25463 53.9719 8.45327 54.2129 8.64941C54.4577 8.84866 54.4999 8.99214 54.5 9.06543C54.5 9.13866 54.4577 9.28213 54.2129 9.48145C53.9719 9.67761 53.5928 9.87719 53.0801 10.0537C52.0593 10.4051 50.6167 10.6309 49 10.6309C47.3833 10.6309 45.9407 10.4051 44.9199 10.0537C44.4072 9.87719 44.0281 9.67761 43.7871 9.48145C43.5423 9.28213 43.5 9.13866 43.5 9.06543C43.5001 8.99214 43.5423 8.84866 43.7871 8.64941C44.0281 8.45327 44.4073 8.25463 44.9199 8.07812C45.9407 7.72672 47.3833 7.5 49 7.5Z" stroke="#A5BAC7"/>
<circle cx="49" cy="8.86885" r="0.491803" fill="#457B9D"/>
<path d="M111 7.5C112.617 7.5 114.059 7.72672 115.08 8.07812C115.593 8.25463 115.972 8.45327 116.213 8.64941C116.458 8.84866 116.5 8.99214 116.5 9.06543C116.5 9.13866 116.458 9.28213 116.213 9.48145C115.972 9.67761 115.593 9.87719 115.08 10.0537C114.059 10.4051 112.617 10.6309 111 10.6309C109.383 10.6309 107.941 10.4051 106.92 10.0537C106.407 9.87719 106.028 9.67761 105.787 9.48145C105.542 9.28213 105.5 9.13866 105.5 9.06543C105.5 8.99214 105.542 8.84866 105.787 8.64941C106.028 8.45327 106.407 8.25463 106.92 8.07812C107.941 7.72672 109.383 7.5 111 7.5Z" stroke="#A5BAC7"/>
<circle cx="111" cy="8.86885" r="0.491803" fill="#457B9D"/>
</svg>
